<svg width="20" height="20" viewBox="0 0 20 20" fill="none" xmlns="http://www.w3.org/2000/svg">
<path d="M9.09827 18.2308C9.10042 18.579 9.00013 18.92 8.81011 19.2106C8.62009 19.5012 8.3489 19.7282 8.03091 19.863C7.71293 19.9978 7.36247 20.0341 7.02398 19.9675C6.68549 19.901 6.37421 19.7344 6.12959 19.4889C5.88498 19.2435 5.71805 18.9302 5.64997 18.5889C5.5819 18.2475 5.61574 17.8934 5.74721 17.5715C5.87868 17.2496 6.10185 16.9744 6.38844 16.7807C6.67502 16.587 7.01211 16.4836 7.35697 16.4836C7.81691 16.4836 8.25818 16.6673 8.58442 16.9947C8.91067 17.322 9.09539 17.7664 9.09827 18.2308ZM16.2702 16.4836C15.9258 16.4836 15.5892 16.5867 15.3028 16.7799C15.0165 16.9731 14.7933 17.2477 14.6615 17.569C14.5297 17.8902 14.4952 18.2438 14.5624 18.5848C14.6296 18.9259 14.7954 19.2391 15.0389 19.485C15.2825 19.7309 15.5927 19.8984 15.9305 19.9662C16.2683 20.0341 16.6184 19.9992 16.9366 19.8662C17.2548 19.7331 17.5267 19.5077 17.7181 19.2186C17.9094 18.9295 18.0115 18.5895 18.0115 18.2418C18.0115 17.7755 17.8281 17.3283 17.5015 16.9986C17.175 16.6688 16.732 16.4836 16.2702 16.4836ZM19.9596 5.76956L18.1965 12.9013C18.0174 13.6119 17.6087 14.242 17.0351 14.6917C16.4615 15.1415 15.7558 15.3854 15.0296 15.3847H8.59765C7.86995 15.3848 7.16309 15.1393 6.58931 14.6874C6.01554 14.2355 5.60774 13.603 5.43067 12.8903L2.81872 2.19822H1.08831C0.799672 2.19822 0.522856 2.08244 0.318759 1.87636C0.114661 1.67028 0 1.39078 0 1.09934C0 0.807902 0.114661 0.528399 0.318759 0.32232C0.522856 0.11624 0.799672 0.000466375 1.08831 0.000466375H3.6676C3.91621 -0.00684706 4.1598 0.0720395 4.35782 0.223993C4.55583 0.375946 4.69633 0.591797 4.75591 0.835612L5.60479 4.39597H18.7733H18.8713C18.9722 4.37973 19.0751 4.37973 19.176 4.39597C19.3171 4.43165 19.4498 4.49553 19.566 4.58385C19.6823 4.67217 19.7798 4.78312 19.8528 4.91016C19.9259 5.03719 19.973 5.17772 19.9913 5.32345C20.0097 5.46917 19.9989 5.61713 19.9596 5.75857V5.76956ZM17.5109 6.59372H6.14895L7.57464 12.3518C7.63153 12.5847 7.76231 12.7923 7.94702 12.9431C8.13173 13.0939 8.36023 13.1796 8.59765 13.187H14.9969C15.2455 13.1943 15.4891 13.1154 15.6871 12.9634C15.8851 12.8115 16.0256 12.5956 16.0852 12.3518L17.5109 6.59372Z" fill="white"/>
</svg>
