<svg width="16" height="20" viewBox="0 0 16 20" fill="none" xmlns="http://www.w3.org/2000/svg">
<path d="M8 11.1111C9.13018 11.1111 10.235 10.7853 11.1747 10.1748C12.1144 9.56438 12.8468 8.69672 13.2793 7.68158C13.7118 6.66643 13.825 5.5494 13.6045 4.47172C13.384 3.39405 12.8398 2.40415 12.0406 1.62719C11.2415 0.850229 10.2233 0.321113 9.1148 0.106751C8.00634 -0.107611 6.85739 0.00240713 5.81324 0.422894C4.76909 0.843381 3.87664 1.55545 3.24875 2.46906C2.62085 3.38266 2.28571 4.45677 2.28571 5.55556C2.28571 7.02898 2.88775 8.44206 3.95939 9.48393C5.03103 10.5258 6.48448 11.1111 8 11.1111ZM8 2.22222C8.67811 2.22222 9.34099 2.41772 9.90481 2.78399C10.4686 3.15026 10.9081 3.67086 11.1676 4.27995C11.4271 4.88903 11.495 5.55926 11.3627 6.20586C11.2304 6.85246 10.9039 7.44641 10.4244 7.91258C9.94487 8.37876 9.33396 8.69623 8.66888 8.82484C8.0038 8.95346 7.31443 8.88745 6.68794 8.63516C6.06145 8.38286 5.52598 7.95562 5.14925 7.40746C4.77251 6.85929 4.57143 6.21483 4.57143 5.55556C4.57143 4.6715 4.93265 3.82366 5.57563 3.19854C6.21862 2.57341 7.09069 2.22222 8 2.22222ZM16 16.6667V18.8889C16 19.1836 15.8796 19.4662 15.6653 19.6746C15.4509 19.8829 15.1602 20 14.8571 20C14.554 20 14.2633 19.8829 14.049 19.6746C13.8347 19.4662 13.7143 19.1836 13.7143 18.8889V16.6667C13.7143 16.372 13.5939 16.0894 13.3796 15.881C13.1652 15.6726 12.8745 15.5556 12.5714 15.5556H3.42857C3.12547 15.5556 2.83478 15.6726 2.62045 15.881C2.40612 16.0894 2.28571 16.372 2.28571 16.6667V18.8889C2.28571 19.1836 2.16531 19.4662 1.95098 19.6746C1.73665 19.8829 1.44596 20 1.14286 20C0.839753 20 0.549063 19.8829 0.334735 19.6746C0.120408 19.4662 0 19.1836 0 18.8889V16.6667C0 15.7826 0.361224 14.9348 1.00421 14.3096C1.64719 13.6845 2.51926 13.3333 3.42857 13.3333H12.5714C13.4807 13.3333 14.3528 13.6845 14.9958 14.3096C15.6388 14.9348 16 15.7826 16 16.6667Z" fill="white"/>
</svg>
