<svg width="125" height="125" viewBox="0 0 125 125" fill="none" xmlns="http://www.w3.org/2000/svg">
<path d="M88.6886 113.205C99.673 106.839 108.719 98.037 114.988 87.6184C121.256 77.1998 124.543 65.5019 124.543 53.6112V33.5967C124.534 29.6941 123.227 25.8862 120.796 22.6783C118.365 19.4703 114.924 17.014 110.931 15.635L69.7441 1.26569C64.9091 -0.421896 59.5637 -0.421896 54.7288 1.26569H54.0271L13.5419 15.635C9.56164 17.0243 6.1362 19.4851 3.7183 22.6922C1.30039 25.8992 0.00384016 29.7016 1.20342e-05 33.5967V53.6112C-0.00724629 65.4959 3.26895 77.1899 9.52465 87.608C15.7804 98.0261 24.8129 106.831 35.7842 113.205L50.9398 121.994C54.3163 123.957 58.2349 125 62.2364 125C66.2379 125 70.1565 123.957 73.533 121.994L88.6886 113.205V113.205ZM110.51 53.6112C110.509 63.3384 107.821 72.9079 102.693 81.4311C97.5658 89.9542 90.1661 97.1548 81.181 102.364L66.0253 111.217C64.8947 111.88 63.5797 112.233 62.2364 112.233C60.8931 112.233 59.5781 111.88 58.4475 111.217L43.2918 102.364C34.3198 97.1472 26.9339 89.9433 21.8191 81.4206C16.7042 72.898 14.0261 63.3325 14.033 53.6112V33.5967C14.023 32.2936 14.4473 31.0185 15.2495 29.9413C16.0517 28.8641 17.1937 28.0358 18.5236 27.5667L59.7105 13.2615C61.336 12.6881 63.1368 12.6881 64.7623 13.2615L105.949 27.5667C107.292 28.0255 108.449 28.8493 109.265 29.9274C110.08 31.0055 110.515 32.286 110.51 33.5967V53.6112Z" fill="white"/>
</svg>
