<svg width="125" height="125" viewBox="0 0 125 125" fill="none" xmlns="http://www.w3.org/2000/svg">
<path d="M62.5 0C50.1387 0 38.055 3.66556 27.7769 10.5331C17.4988 17.4007 9.48804 27.1619 4.75756 38.5823C0.0270803 50.0027 -1.21063 62.5693 1.20095 74.6931C3.61252 86.817 9.56507 97.9534 18.3059 106.694C27.0466 115.435 38.1831 121.387 50.3069 123.799C62.4307 126.211 74.9974 124.973 86.4178 120.242C97.8381 115.512 107.599 107.501 114.467 97.2231C121.334 86.9451 125 74.8613 125 62.5C125 45.924 118.415 30.0268 106.694 18.3058C94.9732 6.5848 79.0761 0 62.5 0V0ZM111.875 70.125C110.665 69.3442 109.553 68.4209 108.563 67.375C107.9 66.6594 107.333 65.8611 106.875 65C106.574 64.4637 106.403 63.8644 106.375 63.25V62.4375C106.638 61.6043 107.193 60.8941 107.938 60.4375C109.338 59.627 110.892 59.1163 112.5 58.9375V58.9375C112.5 60.125 112.5 61.375 112.5 62.5625C112.48 65.0954 112.271 67.6232 111.875 70.125V70.125ZM66.0625 12.6875C66.7737 13.4836 67.3826 14.3654 67.875 15.3125C68.7506 17.2793 69.1979 19.4097 69.1875 21.5625C69.2124 22.846 68.9786 24.1213 68.5 25.3125C68.1314 26.2245 67.5276 27.0225 66.75 27.625C65.5598 28.402 64.2796 29.0316 62.9375 29.5C59.5887 30.7277 56.3483 32.2329 53.25 34C51.3848 35.1424 49.752 36.6267 48.4375 38.375C46.9582 40.3588 46.0699 42.7205 45.875 45.1875V46.125C45.8009 48.8693 46.6602 51.5576 48.3125 53.75C50.4371 56.31 53.3679 58.0728 56.625 58.75C58.9645 59.3004 61.3495 59.6352 63.75 59.75C64.4891 59.7777 65.2047 60.0162 65.8125 60.4375C65.8125 60.4375 66.125 60.4375 66.25 61.625V62.625C66.1778 64.3589 65.9051 66.0787 65.4375 67.75C64.9375 69.75 64.25 72.0625 63.75 74.625C63.3197 77.1015 63.1105 79.6114 63.125 82.125C63.1199 84.8125 63.3922 87.4934 63.9375 90.125C64.0255 90.956 64.0255 91.794 63.9375 92.625V93.625L63.375 93.3125C62.2286 92.595 61.2138 91.686 60.375 90.625C59.2074 89.2312 58.1223 87.7704 57.125 86.25C56.375 85.3125 55.5625 83.875 54.5 82.25C53.3556 80.3331 51.922 78.6044 50.25 77.125C47.7611 75.1543 44.9483 73.6317 41.9375 72.625C39.8093 71.9087 37.7227 71.074 35.6875 70.125V70.125C34.7043 69.6618 33.7979 69.0506 33 68.3125C32.4375 67.8125 32.25 67.5625 32.1875 67.375V66.5C32.2113 65.4095 32.4228 64.3312 32.8125 63.3125C33.107 62.4498 33.5513 61.6458 34.125 60.9375C35.1875 59.6875 36.4375 58.6875 38 56.875C39.7885 54.7708 41.0332 52.2599 41.625 49.5625C42.0963 47.6189 42.3272 45.6248 42.3125 43.625C42.2886 37.5697 40.0678 31.7289 36.0625 27.1875C34.6406 25.7022 33.0213 24.4193 31.25 23.375C40.1034 16.2591 51.1418 12.4178 62.5 12.5L66.0625 12.6875ZM97.875 97.875C88.8617 106.601 76.8974 111.62 64.3562 111.935C51.815 112.251 39.6133 107.841 30.172 99.5802C20.7308 91.3191 14.74 79.8108 13.3884 67.3386C12.0367 54.8665 15.4228 42.3419 22.875 32.25C24.6119 32.7352 26.1598 33.7381 27.3125 35.125C29.4027 37.4588 30.5403 40.4923 30.5 43.625C30.4919 44.7186 30.3662 45.8082 30.125 46.875C29.9618 47.8188 29.5522 48.7028 28.9375 49.4375C28.3125 50.1875 27 51.3125 25.3125 53.1875C23.7011 55.0094 22.4688 57.1341 21.6875 59.4375C20.7883 61.7711 20.3224 64.2492 20.3125 66.75C20.304 68.3382 20.5358 69.9186 21 71.4375C21.877 73.8726 23.3872 76.03 25.375 77.6875C26.8852 78.9467 28.5433 80.0171 30.3125 80.875C33.125 82.25 35.75 83.0625 37.875 83.875C39.5802 84.4242 41.1845 85.2475 42.625 86.3125V86.3125C43.4116 87.0659 44.0852 87.929 44.625 88.875C45.4375 90.0625 46.3125 91.625 47.5 93.25C49.1595 95.8044 51.0644 98.1907 53.1875 100.375C54.5358 101.751 56.0719 102.929 57.75 103.875C59.662 104.953 61.8061 105.554 64 105.625V105.625C65.8593 105.649 67.6988 105.242 69.375 104.437C71.7384 103.247 73.5998 101.252 74.625 98.8125C75.4727 96.8409 75.8781 94.7076 75.8125 92.5625C75.7936 90.8605 75.6052 89.1646 75.25 87.5C74.8678 85.713 74.6792 83.8899 74.6875 82.0625C74.6754 80.2615 74.8218 78.4629 75.125 76.6875C75.4375 74.9375 76.0625 72.9375 76.625 70.4375C77.3757 67.8357 77.7751 65.1452 77.8125 62.4375C77.8746 61.6679 77.8746 60.8946 77.8125 60.125C77.5223 56.6629 75.8838 53.4533 73.25 51.1875C70.7873 49.1573 67.7476 47.9545 64.5625 47.75C62.4402 47.6852 60.337 47.3277 58.3125 46.6875L57.75 46.375V45.75C57.75 45.125 57.75 45.125 58.375 44.5C60.2343 43.0315 62.3551 41.9287 64.625 41.25C67.8418 40.2209 70.9257 38.8153 73.8125 37.0625C76.3033 35.1936 78.2461 32.6896 79.4375 29.8125C80.6173 27.1112 81.234 24.1977 81.25 21.25C81.2311 19.4414 81.0216 17.6397 80.625 15.875C87.5909 18.5399 93.8723 22.7295 99.0091 28.1367C104.146 33.5439 108.008 40.0317 110.313 47.125C107.336 47.6878 104.494 48.812 101.938 50.4375C98.8733 52.4553 96.6509 55.5223 95.6875 59.0625C95.2619 60.3742 95.0509 61.746 95.0625 63.125C95.0888 65.5359 95.666 67.9089 96.75 70.0625C98.1841 72.8963 100.184 75.4062 102.625 77.4375C104.546 79.1512 106.641 80.6594 108.875 81.9375C106.264 87.906 102.529 93.3168 97.875 97.875V97.875Z" fill="white"/>
</svg>
